<svg width="30" height="30" viewBox="0 0 30 30" fill="none" xmlns="http://www.w3.org/2000/svg">
<path d="M28.2946 23.4398C28.2946 23.9198 28.188 24.4132 27.9613 24.8932C27.7346 25.3732 27.4413 25.8265 27.0546 26.2532C26.4013 26.9732 25.6813 27.4932 24.868 27.8265C24.068 28.1598 23.2013 28.3332 22.268 28.3332C20.908 28.3332 19.4546 28.0132 17.9213 27.3598C16.388 26.7065 14.8546 25.8265 13.3346 24.7198C11.8013 23.5998 10.348 22.3598 8.9613 20.9865C7.58797 19.5998 6.34797 18.1465 5.2413 16.6265C4.14797 15.1065 3.26797 13.5865 2.62797 12.0798C1.98797 10.5598 1.66797 9.1065 1.66797 7.71984C1.66797 6.81317 1.82797 5.9465 2.14797 5.1465C2.46797 4.33317 2.97464 3.5865 3.6813 2.91984C4.53464 2.07984 5.46797 1.6665 6.45464 1.6665C6.82797 1.6665 7.2013 1.7465 7.53464 1.9065C7.8813 2.0665 8.18797 2.3065 8.42797 2.65317L11.5213 7.01317C11.7613 7.3465 11.9346 7.65317 12.0546 7.9465C12.1746 8.2265 12.2413 8.5065 12.2413 8.75984C12.2413 9.07984 12.148 9.39984 11.9613 9.7065C11.788 10.0132 11.5346 10.3332 11.2146 10.6532L10.2013 11.7065C10.0546 11.8532 9.98797 12.0265 9.98797 12.2398C9.98797 12.3465 10.0013 12.4398 10.028 12.5465C10.068 12.6532 10.108 12.7332 10.1346 12.8132C10.3746 13.2532 10.788 13.8265 11.3746 14.5198C11.9746 15.2132 12.6146 15.9198 13.308 16.6265C14.028 17.3332 14.7213 17.9865 15.428 18.5865C16.1213 19.1732 16.6946 19.5732 17.148 19.8132C17.2146 19.8398 17.2946 19.8798 17.388 19.9198C17.4946 19.9598 17.6013 19.9732 17.7213 19.9732C17.948 19.9732 18.1213 19.8932 18.268 19.7465L19.2813 18.7465C19.6146 18.4132 19.9346 18.1598 20.2413 17.9998C20.548 17.8132 20.8546 17.7198 21.188 17.7198C21.4413 17.7198 21.708 17.7732 22.0013 17.8932C22.2946 18.0132 22.6013 18.1865 22.9346 18.4132L27.348 21.5465C27.6946 21.7865 27.9346 22.0665 28.0813 22.3998C28.2146 22.7332 28.2946 23.0665 28.2946 23.4398Z" stroke="#1269A0" stroke-width="1.5" stroke-miterlimit="10"/>
<path d="M23.6667 10.9997C23.6667 10.1997 23.04 8.97301 22.1067 7.97301C21.2533 7.05301 20.12 6.33301 19 6.33301" stroke="#1269A0" stroke-width="1.5" stroke-linecap="round" stroke-linejoin="round"/>
<path d="M28.3333 10.9998C28.3333 5.83984 24.16 1.6665 19 1.6665" stroke="#1269A0" stroke-width="1.5" stroke-linecap="round" stroke-linejoin="round"/>
</svg>
