<?xml version="1.0" encoding="UTF-8"?>
<svg xmlns="http://www.w3.org/2000/svg" width="53" height="58" viewBox="0 0 53 58" fill="none">
  <path d="M50.2552 20.4641H2.90477C1.85282 20.4641 1 19.6112 1 18.5593V16.9816C1 16.7847 1.15959 16.625 1.35658 16.625H51.8034C52.0002 16.625 52.1599 16.7846 52.1599 16.9816V18.5593C52.1598 19.6112 51.3071 20.4641 50.2552 20.4641Z" stroke="black" stroke-width="1.5" stroke-miterlimit="10" stroke-linecap="round" stroke-linejoin="round"></path>
  <path d="M48.4987 16.6201H4.64844V13.4749C4.64844 13.0918 4.95907 12.7812 5.34212 12.7812H47.8049C48.188 12.7812 48.4986 13.0919 48.4986 13.4749V16.6201H48.4987Z" stroke="black" stroke-width="1.5" stroke-miterlimit="10" stroke-linecap="round" stroke-linejoin="round"></path>
  <path d="M44.8297 12.7773H8.28906V6.08898C8.28906 5.77452 8.54405 5.51953 8.85851 5.51953H44.2604C44.5748 5.51953 44.8298 5.77452 44.8298 6.08898V12.7773H44.8297Z" stroke="black" stroke-width="1.5" stroke-miterlimit="10" stroke-linecap="round" stroke-linejoin="round"></path>
  <path d="M18.0588 1H13.1215C12.749 1 12.4205 1.24418 12.3133 1.60099L11.1328 5.52778H41.9837L40.8032 1.60099C40.696 1.24429 40.3676 1 39.995 1H21.8615" stroke="black" stroke-width="1.5" stroke-miterlimit="10" stroke-linecap="round" stroke-linejoin="round"></path>
  <path d="M47.7109 37.316V32.3203" stroke="black" stroke-width="1.5" stroke-miterlimit="10" stroke-linecap="round" stroke-linejoin="round"></path>
  <path d="M47.7109 47.3146V40.7422" stroke="black" stroke-width="1.5" stroke-miterlimit="10" stroke-linecap="round" stroke-linejoin="round"></path>
  <path d="M36.7344 51.2461V56.5196C36.7344 56.7845 36.9492 56.9993 37.2141 56.9993H47.2205C47.4854 56.9993 47.7002 56.7845 47.7002 56.5196V51.2461" stroke="black" stroke-width="1.5" stroke-miterlimit="10" stroke-linecap="round" stroke-linejoin="round"></path>
  <path d="M36.7344 40.7422V47.8038" stroke="black" stroke-width="1.5" stroke-miterlimit="10" stroke-linecap="round" stroke-linejoin="round"></path>
  <path d="M16.5352 36.9298C17.2351 32.0054 21.4685 28.2188 26.5864 28.2188C31.8329 28.2188 36.15 32.1984 36.6836 37.3036" stroke="black" stroke-width="1.5" stroke-miterlimit="10" stroke-linecap="round" stroke-linejoin="round"></path>
  <path d="M16.4258 47.8038V40.7422" stroke="black" stroke-width="1.5" stroke-miterlimit="10" stroke-linecap="round" stroke-linejoin="round"></path>
  <path d="M5.44531 51.2461V56.5196C5.44531 56.7845 5.6601 56.9993 5.925 56.9993H15.9315C16.1964 56.9993 16.4112 56.7845 16.4112 56.5196V51.2461" stroke="black" stroke-width="1.5" stroke-miterlimit="10" stroke-linecap="round" stroke-linejoin="round"></path>
  <path d="M5.44531 40.7422V47.8038" stroke="black" stroke-width="1.5" stroke-miterlimit="10" stroke-linecap="round" stroke-linejoin="round"></path>
  <path d="M47.6824 28.2957V20.4531H5.44531V37.3006" stroke="black" stroke-width="1.5" stroke-miterlimit="10" stroke-linecap="round" stroke-linejoin="round"></path>
  <path d="M10.9494 32.2815C12.0562 32.2815 12.9534 31.3843 12.9534 30.2775C12.9534 29.1707 12.0562 28.2734 10.9494 28.2734C9.84255 28.2734 8.94531 29.1707 8.94531 30.2775C8.94531 31.3843 9.84255 32.2815 10.9494 32.2815Z" stroke="black" stroke-width="1.5" stroke-miterlimit="10" stroke-linecap="round" stroke-linejoin="round"></path>
  <path d="M42.2033 32.3206C43.3101 32.3206 44.2073 31.4234 44.2073 30.3165C44.2073 29.2097 43.3101 28.3125 42.2033 28.3125C41.0965 28.3125 40.1992 29.2097 40.1992 30.3165C40.1992 31.4234 41.0965 32.3206 42.2033 32.3206Z" stroke="black" stroke-width="1.5" stroke-miterlimit="10" stroke-linecap="round" stroke-linejoin="round"></path>
  <path d="M48.5044 40.7619H35.925C35.6665 40.7619 35.457 40.5524 35.457 40.2939V37.7883C35.457 37.5298 35.6665 37.3203 35.925 37.3203H48.5044C48.7629 37.3203 48.9723 37.5298 48.9723 37.7883V40.2938C48.9725 40.5523 48.7629 40.7619 48.5044 40.7619Z" stroke="black" stroke-width="1.5" stroke-miterlimit="10" stroke-linecap="round" stroke-linejoin="round"></path>
  <path d="M17.2193 40.7619H4.63985C4.38136 40.7619 4.17188 40.5524 4.17188 40.2939V37.7883C4.17188 37.5298 4.38136 37.3203 4.63985 37.3203H17.2192C17.4777 37.3203 17.6872 37.5298 17.6872 37.7883V40.2938C17.6873 40.5523 17.4778 40.7619 17.2193 40.7619Z" stroke="black" stroke-width="1.5" stroke-miterlimit="10" stroke-linecap="round" stroke-linejoin="round"></path>
  <path d="M48.5044 51.2618H35.925C35.6665 51.2618 35.457 51.0523 35.457 50.7938V48.2883C35.457 48.0298 35.6665 47.8203 35.925 47.8203H48.5044C48.7629 47.8203 48.9723 48.0298 48.9723 48.2883V50.7938C48.9725 51.0523 48.7629 51.2618 48.5044 51.2618Z" stroke="black" stroke-width="1.5" stroke-miterlimit="10" stroke-linecap="round" stroke-linejoin="round"></path>
  <path d="M17.2193 51.2618H4.63985C4.38136 51.2618 4.17188 51.0523 4.17188 50.7938V48.2883C4.17188 48.0298 4.38136 47.8203 4.63985 47.8203H17.2192C17.4777 47.8203 17.6872 48.0298 17.6872 48.2883V50.7938C17.6873 51.0523 17.4778 51.2618 17.2193 51.2618Z" stroke="black" stroke-width="1.5" stroke-miterlimit="10" stroke-linecap="round" stroke-linejoin="round"></path>
  <path d="M12.9258 9.14844H40.2425" stroke="black" stroke-width="1.5" stroke-miterlimit="10" stroke-linecap="round" stroke-linejoin="round"></path>
</svg>
