<svg width="86" height="56" viewBox="0 0 86 56" fill="none" xmlns="http://www.w3.org/2000/svg">
<path opacity="0.5" d="M0.499023 34.0345C0.499023 40.3716 2.19157 45.7255 5.38461 49.5039C8.58619 53.2924 13.2565 55.4488 19.0993 55.4488C23.9414 55.4488 28.0531 53.9613 30.9609 51.3595C33.873 48.7539 35.5448 45.0585 35.5448 40.7185C35.5448 32.8911 29.4981 26.635 21.0386 26.635C20.0761 26.635 19.1357 26.2054 18.5601 25.5806C17.9972 24.9697 17.8131 24.2214 18.2043 23.4757C20.8346 18.4623 25.9019 15.0568 32.6477 13.9701C36.1486 13.4062 39.208 10.6316 39.208 6.96238C39.208 3.62494 36.6203 0.714445 33.1951 0.914177C14.1938 2.0222 0.499023 16.8254 0.499023 34.0345ZM46.3962 34.0345C46.3962 40.3716 48.0887 45.7255 51.2818 49.5039C54.4834 53.2924 59.1537 55.4488 64.9965 55.4488C69.7331 55.4488 73.8429 53.9601 76.7755 51.3611C79.7125 48.7582 81.442 45.0636 81.442 40.7185C81.442 32.886 75.1747 26.635 66.9358 26.635C65.9733 26.635 65.0329 26.2054 64.4572 25.5806C63.8944 24.9697 63.7102 24.2215 64.1015 23.4757C66.7318 18.4623 71.799 15.0568 78.5448 13.9701C82.0457 13.4062 85.1051 10.6316 85.1051 6.96238C85.1051 3.62494 82.5175 0.714445 79.0923 0.914177C60.091 2.0222 46.3962 16.8254 46.3962 34.0345Z" stroke="#136AA1"/>
</svg>
